<?xml version="1.0" encoding="UTF-8" standalone="no"?>
<!-- Created with Inkscape (http://www.inkscape.org/) -->

<svg
   width="3.4735963in"
   height="0.72834647in"
   viewBox="0 0 88.229347 18.5"
   version="1.1"
   id="svg857"
   inkscape:version="1.1.2 (b8e25be8, 2022-02-05)"
   sodipodi:docname="pmpkinate.svg"
   xmlns:inkscape="http://www.inkscape.org/namespaces/inkscape"
   xmlns:sodipodi="http://sodipodi.sourceforge.net/DTD/sodipodi-0.dtd"
   xmlns="http://www.w3.org/2000/svg"
   xmlns:svg="http://www.w3.org/2000/svg">
  <sodipodi:namedview
     id="namedview859"
     pagecolor="#ffffff"
     bordercolor="#666666"
     borderopacity="1.0"
     inkscape:pageshadow="2"
     inkscape:pageopacity="0.0"
     inkscape:pagecheckerboard="0"
     inkscape:document-units="mm"
     showgrid="false"
     inkscape:zoom="1.5862247"
     inkscape:cx="115.05305"
     inkscape:cy="42.55387"
     inkscape:window-width="1312"
     inkscape:window-height="903"
     inkscape:window-x="368"
     inkscape:window-y="25"
     inkscape:window-maximized="0"
     inkscape:current-layer="g4474"
     fit-margin-top="0"
     fit-margin-left="0"
     fit-margin-right="0"
     fit-margin-bottom="0"
     units="in" />
  <defs
     id="defs854" />
  <g
     inkscape:label="Layer 1"
     inkscape:groupmode="layer"
     id="layer1"
     transform="translate(-95.632384,-137.25651)">
    <g
       id="g4474"
       style="fill:#df6b00;fill-opacity:1">
      <g
         id="g6644">
        <g
           id="g839"
           transform="matrix(0.24553389,0,0,0.24553389,91.517236,134.22982)"
           style="fill:#df6b00;fill-opacity:1">
          <path
             fill="#000000"
             d="m 59.066,56.615 c 0,-10.985 -9.06,-18.565 -9.06,-18.565 0,0 -9.061,8.033 -9.061,18.565 v 21.998 c 0,5.004 4.057,9.06 9.061,9.06 5.003,0 9.06,-4.056 9.06,-9.06 z"
             id="path2"
             style="fill:#df6b00;fill-opacity:1" />
          <path
             fill="#000000"
             d="m 61.537,56.15 v 20.014 c 0,3.203 2.596,5.801 5.803,5.801 3.203,0 5.191,-2.598 5.801,-5.801 0,0 2.098,-10.74 2.098,-16.634 0,-2.148 0,-6.147 0,-6.147 0,-9.709 -7.871,-17.581 -17.58,-17.581 -1.959,0 -3.842,0.32 -5.602,0.912 0,0 9.48,7.936 9.48,19.436 z"
             id="path4"
             style="fill:#df6b00;fill-opacity:1" />
          <path
             fill="#000000"
             d="m 38.473,56.15 v 20.014 c 0,3.203 -2.598,5.801 -5.802,5.801 -3.204,0 -5.192,-2.598 -5.802,-5.801 0,0 -2.098,-10.74 -2.098,-16.634 0,-2.148 0,-6.147 0,-6.147 0,-9.709 7.869,-17.581 17.58,-17.581 1.957,0 3.842,0.32 5.602,0.912 10e-4,0 -9.48,7.936 -9.48,19.436 z"
             id="path6"
             style="fill:#df6b00;fill-opacity:1" />
          <path
             fill="#000000"
             d="m 65.426,28.131 c -4.914,0 -9.422,1.727 -12.962,4.597 0.047,-0.191 0.079,-0.388 0.079,-0.594 v -1.586 c 6.327,-5.757 14.08,-4.695 14.08,-4.695 -5.894,-4.235 -11.771,-2.921 -14.08,1.395 v -5.645 l 4.811,-5.052 c 0.953,-1 0.914,-2.583 -0.086,-3.535 -1,-0.952 -2.582,-0.912 -3.535,0.086 l -5.5,5.776 c -0.441,0.465 -0.689,1.083 -0.689,1.724 v 6.345 c -2.348,-4.232 -8.178,-5.491 -14.026,-1.29 0,0 7.71,-1.057 14.026,4.641 v 1.835 c 0,0.237 0.043,0.461 0.105,0.679 -3.557,-2.924 -8.11,-4.682 -13.074,-4.682 -11.377,0 -17.815,9.223 -17.815,20.599 0,12.622 4.664,23.143 4.664,23.143 0.197,0.43 0.456,1.021 1.019,1.021 0.565,0 1.021,-0.457 1.021,-1.021 0,0 -1.178,-7.3 -1.178,-18.269 0,-10.97 9.086,-20.296 20.295,-20.296 2.169,0 4.255,0.349 6.213,0.979 0.369,0.215 0.792,0.347 1.25,0.347 0.499,0 0.961,-0.15 1.351,-0.402 1.905,-0.593 3.924,-0.924 6.023,-0.924 11.209,0 20.295,9.326 20.295,20.296 0,10.969 -1.176,18.269 -1.176,18.269 0,0.564 0.455,1.021 1.02,1.021 0.562,0 0.822,-0.592 1.02,-1.021 0,0 4.664,-10.521 4.664,-23.143 C 83.24,37.354 76.801,28.131 65.426,28.131 Z"
             id="path8"
             style="fill:#df6b00;fill-opacity:1" />
        </g>
        <g
           id="g4462"
           style="fill:#df6b00;fill-opacity:1">
          <g
             id="g6631">
            <text
               xml:space="preserve"
               style="font-size:10.5833px;line-height:1.25;font-family:Netron;-inkscape-font-specification:Netron;fill:#df6b00;fill-opacity:1;stroke-width:0.264583"
               x="113.56133"
               y="147.86649"
               id="text1081"><tspan
                 sodipodi:role="line"
                 id="tspan1079"
                 style="font-style:normal;font-variant:normal;font-weight:normal;font-stretch:normal;font-family:'Bowlby One SC';-inkscape-font-specification:'Bowlby One SC';fill:#df6b00;fill-opacity:1;stroke-width:0.264583"
                 x="113.56133"
                 y="147.86649">PMPKINATE</tspan></text>
            <text
               xml:space="preserve"
               style="font-size:4.01711px;line-height:1.25;font-family:Netron;-inkscape-font-specification:Netron;fill:#df6b00;fill-opacity:1;stroke-width:0.100428"
               x="113.84568"
               y="152.31958"
               id="text3186"><tspan
                 sodipodi:role="line"
                 id="tspan3184"
                 style="font-style:normal;font-variant:normal;font-weight:normal;font-stretch:normal;font-family:'Alegreya SC';-inkscape-font-specification:'Alegreya SC';fill:#df6b00;fill-opacity:1;stroke-width:0.100428"
                 x="113.84568"
                 y="152.31958">PUMPKIN DONATIONS</tspan></text>
          </g>
        </g>
      </g>
    </g>
  </g>
</svg>
