<?xml version="1.0" encoding="UTF-8" standalone="no"?>
<!-- Created with Inkscape (http://www.inkscape.org/) -->

<svg
   width="65.294792mm"
   height="58.462624mm"
   viewBox="0 0 65.294792 58.462624"
   version="1.1"
   id="svg5181"
   inkscape:version="1.1.2 (b8e25be8, 2022-02-05)"
   sodipodi:docname="ty.svg"
   xmlns:inkscape="http://www.inkscape.org/namespaces/inkscape"
   xmlns:sodipodi="http://sodipodi.sourceforge.net/DTD/sodipodi-0.dtd"
   xmlns="http://www.w3.org/2000/svg"
   xmlns:svg="http://www.w3.org/2000/svg">
  <sodipodi:namedview
     id="namedview5183"
     pagecolor="#ffffff"
     bordercolor="#666666"
     borderopacity="1.0"
     inkscape:pageshadow="2"
     inkscape:pageopacity="0.0"
     inkscape:pagecheckerboard="0"
     inkscape:document-units="mm"
     showgrid="false"
     fit-margin-top="0"
     fit-margin-left="0"
     fit-margin-right="0"
     fit-margin-bottom="0"
     inkscape:zoom="0.6440867"
     inkscape:cx="-47.353873"
     inkscape:cy="249.19005"
     inkscape:window-width="1312"
     inkscape:window-height="903"
     inkscape:window-x="0"
     inkscape:window-y="25"
     inkscape:window-maximized="0"
     inkscape:current-layer="layer1" />
  <defs
     id="defs5178">
    <clipPath
       clipPathUnits="userSpaceOnUse"
       id="clipPath5029">
      <path
         id="path5031"
         style="fill:#00ffff;stroke-width:0.264583"
         d="M 43.149078,70.957765 101.23615,71.231548 110.9969,82.852202 99.397825,97.284183 75.586648,116.21803 48.604969,102.16601 Z"
         sodipodi:nodetypes="ccccccc" />
    </clipPath>
    <clipPath
       clipPathUnits="userSpaceOnUse"
       id="clipPath5025">
      <path
         id="path5027"
         style="fill:#00ffff;stroke-width:0.264583"
         d="M 43.149078,70.957765 101.23615,71.231548 110.9969,82.852202 99.397825,97.284183 75.586648,116.21803 48.604969,102.16601 Z"
         sodipodi:nodetypes="ccccccc" />
    </clipPath>
    <clipPath
       clipPathUnits="userSpaceOnUse"
       id="clipPath5021">
      <path
         id="path5023"
         style="fill:#00ffff;stroke-width:0.264583"
         d="M 43.149078,70.957765 101.23615,71.231548 110.9969,82.852202 99.397825,97.284183 75.586648,116.21803 48.604969,102.16601 Z"
         sodipodi:nodetypes="ccccccc" />
    </clipPath>
    <clipPath
       clipPathUnits="userSpaceOnUse"
       id="clipPath5017">
      <path
         id="path5019"
         style="fill:#00ffff;stroke-width:0.264583"
         d="M 43.149078,70.957765 101.23615,71.231548 110.9969,82.852202 99.397825,97.284183 75.586648,116.21803 48.604969,102.16601 Z"
         sodipodi:nodetypes="ccccccc" />
    </clipPath>
    <clipPath
       clipPathUnits="userSpaceOnUse"
       id="clipPath5013">
      <path
         id="path5015"
         style="fill:#00ffff;stroke-width:0.264583"
         d="M 43.149078,70.957765 101.23615,71.231548 110.9969,82.852202 99.397825,97.284183 75.586648,116.21803 48.604969,102.16601 Z"
         sodipodi:nodetypes="ccccccc" />
    </clipPath>
    <clipPath
       clipPathUnits="userSpaceOnUse"
       id="clipPath5009">
      <path
         id="path5011"
         style="fill:#00ffff;stroke-width:0.264583"
         d="M 43.149078,70.957765 101.23615,71.231548 110.9969,82.852202 99.397825,97.284183 75.586648,116.21803 48.604969,102.16601 Z"
         sodipodi:nodetypes="ccccccc" />
    </clipPath>
    <clipPath
       clipPathUnits="userSpaceOnUse"
       id="clipPath5005">
      <path
         id="path5007"
         style="fill:#00ffff;stroke-width:0.264583"
         d="M 43.149078,70.957765 101.23615,71.231548 110.9969,82.852202 99.397825,97.284183 75.586648,116.21803 48.604969,102.16601 Z"
         sodipodi:nodetypes="ccccccc" />
    </clipPath>
    <clipPath
       clipPathUnits="userSpaceOnUse"
       id="clipPath5001">
      <path
         id="path5003"
         style="fill:#00ffff;stroke-width:0.264583"
         d="M 43.149078,70.957765 101.23615,71.231548 110.9969,82.852202 99.397825,97.284183 75.586648,116.21803 48.604969,102.16601 Z"
         sodipodi:nodetypes="ccccccc" />
    </clipPath>
    <clipPath
       clipPathUnits="userSpaceOnUse"
       id="clipPath4997">
      <path
         id="path4999"
         style="fill:#00ffff;stroke-width:0.264583"
         d="M 43.149078,70.957765 101.23615,71.231548 110.9969,82.852202 99.397825,97.284183 75.586648,116.21803 48.604969,102.16601 Z"
         sodipodi:nodetypes="ccccccc" />
    </clipPath>
    <clipPath
       clipPathUnits="userSpaceOnUse"
       id="clipPath4993">
      <path
         id="path4995"
         style="fill:#00ffff;stroke-width:0.264583"
         d="M 43.149078,70.957765 101.23615,71.231548 110.9969,82.852202 99.397825,97.284183 75.586648,116.21803 48.604969,102.16601 Z"
         sodipodi:nodetypes="ccccccc" />
    </clipPath>
    <clipPath
       clipPathUnits="userSpaceOnUse"
       id="clipPath4989">
      <path
         id="path4991"
         style="fill:#00ffff;stroke-width:0.264583"
         d="M 43.149078,70.957765 101.23615,71.231548 110.9969,82.852202 99.397825,97.284183 75.586648,116.21803 48.604969,102.16601 Z"
         sodipodi:nodetypes="ccccccc" />
    </clipPath>
    <clipPath
       clipPathUnits="userSpaceOnUse"
       id="clipPath4985">
      <path
         id="path4987"
         style="fill:#00ffff;stroke-width:0.264583"
         d="M 43.149078,70.957765 101.23615,71.231548 110.9969,82.852202 99.397825,97.284183 75.586648,116.21803 48.604969,102.16601 Z"
         sodipodi:nodetypes="ccccccc" />
    </clipPath>
    <clipPath
       clipPathUnits="userSpaceOnUse"
       id="clipPath4981">
      <path
         id="path4983"
         style="fill:#00ffff;stroke-width:0.264583"
         d="M 43.149078,70.957765 101.23615,71.231548 110.9969,82.852202 99.397825,97.284183 75.586648,116.21803 48.604969,102.16601 Z"
         sodipodi:nodetypes="ccccccc" />
    </clipPath>
    <clipPath
       clipPathUnits="userSpaceOnUse"
       id="clipPath4977">
      <path
         id="path4979"
         style="fill:#00ffff;stroke-width:0.264583"
         d="M 43.149078,70.957765 101.23615,71.231548 110.9969,82.852202 99.397825,97.284183 75.586648,116.21803 48.604969,102.16601 Z"
         sodipodi:nodetypes="ccccccc" />
    </clipPath>
    <clipPath
       clipPathUnits="userSpaceOnUse"
       id="clipPath4973">
      <path
         id="path4975"
         style="fill:#00ffff;stroke-width:0.264583"
         d="M 43.149078,70.957765 101.23615,71.231548 110.9969,82.852202 99.397825,97.284183 75.586648,116.21803 48.604969,102.16601 Z"
         sodipodi:nodetypes="ccccccc" />
    </clipPath>
    <clipPath
       clipPathUnits="userSpaceOnUse"
       id="clipPath4969">
      <path
         id="path4971"
         style="fill:#00ffff;stroke-width:0.264583"
         d="M 43.149078,70.957765 101.23615,71.231548 110.9969,82.852202 99.397825,97.284183 75.586648,116.21803 48.604969,102.16601 Z"
         sodipodi:nodetypes="ccccccc" />
    </clipPath>
    <clipPath
       clipPathUnits="userSpaceOnUse"
       id="clipPath4965">
      <path
         id="path4967"
         style="fill:#00ffff;stroke-width:0.264583"
         d="M 43.149078,70.957765 101.23615,71.231548 110.9969,82.852202 99.397825,97.284183 75.586648,116.21803 48.604969,102.16601 Z"
         sodipodi:nodetypes="ccccccc" />
    </clipPath>
    <clipPath
       clipPathUnits="userSpaceOnUse"
       id="clipPath4961">
      <path
         id="path4963"
         style="fill:#00ffff;stroke-width:0.264583"
         d="M 43.149078,70.957765 101.23615,71.231548 110.9969,82.852202 99.397825,97.284183 75.586648,116.21803 48.604969,102.16601 Z"
         sodipodi:nodetypes="ccccccc" />
    </clipPath>
    <clipPath
       clipPathUnits="userSpaceOnUse"
       id="clipPath4957">
      <path
         id="path4959"
         style="fill:#00ffff;stroke-width:0.264583"
         d="M 43.149078,70.957765 101.23615,71.231548 110.9969,82.852202 99.397825,97.284183 75.586648,116.21803 48.604969,102.16601 Z"
         sodipodi:nodetypes="ccccccc" />
    </clipPath>
    <clipPath
       clipPathUnits="userSpaceOnUse"
       id="clipPath4953">
      <path
         id="path4955"
         style="fill:#00ffff;stroke-width:0.264583"
         d="M 43.149078,70.957765 101.23615,71.231548 110.9969,82.852202 99.397825,97.284183 75.586648,116.21803 48.604969,102.16601 Z"
         sodipodi:nodetypes="ccccccc" />
    </clipPath>
  </defs>
  <g
     inkscape:label="Layer 1"
     inkscape:groupmode="layer"
     id="layer1"
     transform="translate(-117.29036,-82.503128)">
    <g
       id="g5095"
       transform="translate(-26.595102,92.374269)"
       inkscape:export-filename="/Users/user/g5095.png"
       inkscape:export-xdpi="194.5"
       inkscape:export-ydpi="194.5">
      <g
         id="g4798"
         transform="translate(4.883485,8.911871)">
        <g
           id="g4829"
           transform="translate(-7.4543566,-28.987385)">
          <g
             id="g1049"
             transform="matrix(0.26458333,0,0,0.26458333,101.47835,-28.565807)">
            <rect
               x="176.13901"
               y="216.98"
               transform="matrix(-0.9954,0.0957,-0.0957,-0.9954,612.8696,544.1779)"
               style="fill:#40c800;fill-opacity:1"
               width="234.49899"
               height="139.603"
               id="rect1045" />
            <rect
               x="176.13901"
               y="216.98"
               transform="matrix(-0.9954,0.0957,-0.0957,-0.9954,612.8696,544.1779)"
               style="opacity:0.1"
               width="234.49899"
               height="139.603"
               id="rect1047" />
          </g>
          <polygon
             style="opacity:0.1;fill:#263238"
             points="403.423,206.082 293.996,293.095 169.999,228.518 "
             id="polygon1051"
             transform="matrix(0.26458333,0,0,0.26458333,101.47835,-28.565807)" />
          <path
             style="fill:#40c800;fill-opacity:1;stroke-width:0.264583"
             d="m 171.79137,11.751136 -25.33412,20.144846 61.7601,-5.935927 -28.70756,-14.95081 c -2.49369,-1.2985754 -5.51788,-1.007798 -7.71842,0.741891 z"
             id="path1053" />
          <path
             style="opacity:0.2;fill:#263238;stroke-width:0.264583"
             d="M 205.92288,26.180717 178.64672,11.975503 c -1.88171,-0.980017 -4.16374,-0.760677 -5.82453,0.559858 l -24.071,19.140487 z"
             id="path1055" />
          <g
             id="g5327"
             transform="translate(103.67334,-67.235786)">
            <g
               id="g5053">
              <path
                 style="fill:#4ce550;stroke-width:0.0159732"
                 d="m 73.654927,86.568237 c 0,0 2.273373,-1.370023 2.192325,-6.49781 l 1.080269,-0.350405 c 0.97197,-0.315263 2.021682,0.135022 2.474651,1.050942 0.705377,1.426313 1.413486,3.835697 0.731477,7.166753 z"
                 id="path875"
                 clip-path="url(#clipPath5029)" />
              <path
                 style="opacity:0.6;fill:#ffffff;stroke-width:0.0159732"
                 d="m 75.96876,81.894648 1.080269,-0.350388 c 0.97197,-0.31528 2.021683,0.135021 2.474651,1.050942 0.351044,0.709834 0.702502,1.663547 0.883207,2.852785 0.02458,-2.066695 -0.489547,-3.635266 -1.004715,-4.677007 -0.452985,-0.91592 -1.502697,-1.366205 -2.474651,-1.050942 l -1.080253,0.350389 c 0.08105,5.127787 -2.192325,6.49781 -2.192325,6.49781 l 0.822925,-0.05186 c 0.516414,-0.999157 1.528653,-2.232322 1.490892,-4.621724 z"
                 id="path879"
                 clip-path="url(#clipPath5025)" />
              <path
                 style="fill:#000000;fill-opacity:1;stroke-width:0.0159732"
                 d="m 80.133633,88.481126 c -0.03752,0 -0.07515,-0.0039 -0.112387,-0.01174 L 73.54254,87.099921 c -0.218418,-0.04618 -0.386376,-0.221229 -0.423466,-0.441324 -0.03677,-0.218146 0.06236,-0.436612 0.250204,-0.552673 0.04372,-0.0287 2.008313,-1.364353 1.934645,-6.02692 -0.0038,-0.238656 0.148615,-0.451866 0.375706,-0.525487 l 1.080253,-0.350388 c 1.23481,-0.400577 2.551003,0.157432 3.129409,1.326911 0.7471,1.510747 1.488369,4.041113 0.776746,7.516662 -0.02901,0.141794 -0.11341,0.266162 -0.234455,0.345469 -0.08923,0.05849 -0.192925,0.08895 -0.297949,0.08895 z m -5.375084,-2.235037 4.941907,1.044616 c 0.474245,-2.894906 -0.152289,-4.998659 -0.785404,-6.278849 -0.337162,-0.681705 -1.102567,-1.007415 -1.819844,-0.774909 l -0.702918,0.228018 c -0.02433,3.140479 -0.928587,4.891208 -1.633741,5.781124 z"
                 id="path883"
                 clip-path="url(#clipPath5021)" />
              <path
                 style="fill:#ff9831;stroke-width:0.0159732"
                 d="m 92.134314,109.92712 c -0.554718,1.177 -1.188727,2.17728 -1.817465,2.94396 -3.525881,4.29592 -9.768918,6.05005 -14.572033,3.72885 0,0 -1.358044,0.64663 -3.951136,0.19034 -2.590409,-0.45583 -3.646143,-1.5272 -3.646143,-1.5272 -5.306959,0.54217 -10.576221,-3.23774 -12.423827,-8.47921 -0.362352,-1.02937 -0.633402,-2.32686 -0.735966,-3.78229 -0.216198,-3.06731 0.323889,-6.826448 2.372087,-10.187788 0.823483,-1.355935 1.894743,-2.646204 3.262307,-3.801563 6.353044,-5.373758 13.3512,-3.14083 13.3512,-3.14083 1.976813,-0.603964 3.297751,-0.20877 3.297751,-0.20877 0,0 1.379175,0.07993 3.031078,1.322423 0,0 2.402915,0.09451 5.231948,1.530346 2.118033,1.070717 4.474099,2.889572 6.245098,5.979415 3.190267,5.560497 2.219639,11.484127 0.355101,15.432317 z"
                 id="path887"
                 clip-path="url(#clipPath5017)" />
              <path
                 style="fill:#ffa255;stroke-width:0.0159732"
                 d="m 68.147553,115.26307 c -5.306959,0.54217 -10.576221,-3.23774 -12.423827,-8.47921 -1.433389,-4.06778 -1.456822,-12.401013 4.898412,-17.771641 6.353044,-5.373758 13.3512,-3.14083 13.3512,-3.14083 0,0 -6.679985,-1.109244 -10.989767,3.377042 -4.306636,4.484082 -5.483335,10.324514 -5.214235,14.110179 0.269612,3.78299 4.414216,11.05365 10.378217,11.90446 z"
                 id="path891"
                 clip-path="url(#clipPath5013)" />
              <path
                 style="fill:#ff7c33;stroke-width:0.0159732"
                 d="m 89.563328,108.95328 c -1.544754,3.46373 -7.922334,8.88284 -13.818512,7.64667 0,0 11.982949,-4.38034 8.805269,-20.328637 0,0 -0.217316,-5.365676 -4.247902,-9.286255 0,0 6.657382,1.237685 9.176838,6.925684 2.517252,5.684854 1.629556,11.576148 0.08431,15.042538 z"
                 id="path895"
                 clip-path="url(#clipPath5009)" />
              <path
                 style="fill:#ff7c33;stroke-width:0.0159732"
                 d="m 68.147553,115.26307 c -5.963985,-0.85083 -10.108605,-8.12147 -10.378201,-11.90447 -0.2691,-3.785655 0.907583,-9.626103 5.214234,-14.110185 4.309783,-4.486286 10.989768,-3.377042 10.989768,-3.377042 -5.126813,2.3092 -7.162712,7.278373 -7.162712,7.278373 -8.430969,13.905584 1.336911,22.113324 1.336911,22.113324 z"
                 id="path899"
                 clip-path="url(#clipPath5005)" />
              <path
                 style="opacity:0.25;fill:#000000;fill-opacity:1;stroke-width:0.0159732"
                 d="m 90.728207,111.44263 c -0.06825,0.0901 -0.136044,0.17746 -0.206054,0.26169 -3.525881,4.29592 -9.768918,6.05006 -14.572034,3.72887 0,0 -1.358059,0.64664 -3.951135,0.19035 -2.590409,-0.45583 -3.646143,-1.52722 -3.646143,-1.52722 -5.306959,0.54218 -10.576221,-3.23774 -12.423827,-8.47922 -0.136332,-0.3854 -0.260268,-0.81 -0.364685,-1.26704 0.555517,1.0606 1.498033,2.35208 2.789004,2.30613 l -0.441068,-2.3068 c 0,0 3.492944,5.28267 5.765997,2.79135 0,0 2.317458,5.25241 9.142208,5.96226 6.822083,0.70935 13.513983,-7.26435 11.733049,-16.820043 0.108778,0.322611 2.600696,7.970113 -2.364819,15.022653 0,0 5.090809,1.32896 8.147652,-4.55032 0,0 -1.089517,4.84327 -5.300553,7.54536 0.119479,-0.0204 3.143961,-0.58896 5.692408,-2.85802 z"
                 id="path903"
                 clip-path="url(#clipPath5001)" />
              <path
                 style="opacity:0.35;fill:#ffffff;stroke-width:0.0159732"
                 d="m 61.414489,94.382512 c 0.646229,-1.673195 1.97814,-4.312211 4.32788,-5.792785 0.289659,-0.18251 0.622237,0.167815 0.425175,0.447762 -0.958808,1.36202 -2.705799,3.798048 -4.215636,5.655909 -0.225606,0.277599 -0.666291,0.02279 -0.537419,-0.310886 z"
                 id="path907"
                 clip-path="url(#clipPath4997)" />
              <path
                 style="opacity:0.35;fill:#ffffff;stroke-width:0.0159732"
                 d="m 67.556735,95.817322 c 0.882329,-2.32749 2.694571,-6.000915 5.867028,-8.074287 0.391072,-0.255588 0.835751,0.228082 0.568471,0.618196 -1.300396,1.897985 -3.669448,5.292902 -5.714963,7.883439 -0.305631,0.387063 -0.896497,0.0368 -0.720536,-0.427348 z"
                 id="path911"
                 clip-path="url(#clipPath4993)" />
              <path
                 style="opacity:0.6;fill:#ffffff;stroke-width:0.0159732"
                 d="m 82.042561,88.273458 0.65281,1.761926 c 0,0 -2.68783,-2.67732 -5.475652,-3.234098 -2.788301,-0.554095 -6.662925,1.255383 -6.662925,1.255383 l 1.369751,-1.152212 c -4.124764,-0.171281 -8.613543,1.977069 -8.891301,2.113049 l 2.91885,-1.928015 c -5.441916,2.030292 -8.581165,5.759703 -8.581165,5.759703 0,0 -0.0035,-0.01166 -0.01308,-0.03541 0.823483,-1.355935 1.894743,-2.646204 3.262307,-3.801563 6.353044,-5.373758 13.3512,-3.14083 13.3512,-3.14083 1.976813,-0.603964 3.297751,-0.20877 3.297751,-0.20877 0,0 1.379175,0.07993 3.031078,1.322423 0,0 2.402915,0.09451 5.231948,1.530346 l 3.731392,4.946699 C 87.425618,91.124328 82.042563,88.27346 82.042563,88.27346 Z"
                 id="path915"
                 clip-path="url(#clipPath4989)" />
              <path
                 style="fill:#000000;fill-opacity:1;stroke-width:0.0159732"
                 d="m 75.586649,116.21803 c 3.541822,-1.65736 6.492379,-4.62738 8.058074,-8.22057 0.750566,-1.68797 1.166157,-3.5322 1.316864,-5.372 0.01265,-0.24669 0.04231,-0.86358 0.05602,-1.11523 -0.0037,-0.22956 -0.0055,-0.89225 -0.0062,-1.11859 -0.02781,-0.579895 -0.05757,-1.288563 -0.129895,-1.86387 0,0 -0.08244,-0.745007 -0.08244,-0.745007 -0.06723,-0.495266 -0.155596,-0.98788 -0.225127,-1.485398 -0.0064,-0.03235 0.01597,-0.06463 0.04897,-0.06891 0.0296,-0.0041 0.05717,0.01509 0.06439,0.04337 0.119959,0.489276 0.243288,0.978791 0.350516,1.471325 0.07284,0.452442 0.19457,1.049872 0.243352,1.495924 0.03017,0.280953 0.09988,0.864326 0.117931,1.133056 0.01035,0.23142 0.04091,0.8976 0.04974,1.14011 -0.0034,0.26218 -0.01661,0.89169 -0.0223,1.14272 -0.106015,1.90613 -0.484852,3.81219 -1.215371,5.58135 -1.540489,3.80819 -4.603817,6.98263 -8.306937,8.74783 -0.513938,0.20402 -0.834345,-0.53931 -0.317627,-0.76611 z"
                 id="path919"
                 clip-path="url(#clipPath4985)" />
              <path
                 style="fill:#000000;fill-opacity:1;stroke-width:0.0159732"
                 d="m 76.423885,116.47641 c 4.457263,-0.004 9.123137,-1.84187 11.739486,-5.57117 2.074522,-2.92243 2.739264,-6.56879 2.777376,-10.10633 2.71e-4,-0.032 0.02643,-0.0578 0.05846,-0.0575 0.03081,2.7e-4 0.05584,0.0248 0.05741,0.0552 0.101638,2.05768 -0.04465,4.13912 -0.569285,6.14071 -1.355456,5.3839 -5.5709,8.95623 -10.948636,10.0226 -1.033579,0.20889 -2.084713,0.34558 -3.141805,0.34533 -0.5532,-0.0302 -0.532227,-0.8331 0.02699,-0.82884 z"
                 id="path923"
                 clip-path="url(#clipPath4981)" />
              <path
                 style="fill:#000000;fill-opacity:1;stroke-width:0.0159732"
                 d="M 89.444903,93.925406 C 88.065248,91.715431 86.123351,89.86717 83.847183,88.60947 83.093982,88.197042 82.30917,87.846765 81.50166,87.55749 c -0.216597,-0.07637 -0.329911,-0.314672 -0.252345,-0.53087 0.07726,-0.21575 0.314976,-0.327866 0.53063,-0.250364 2.967649,1.066436 5.583168,3.171051 7.159214,5.90942 0.21912,0.389699 0.420734,0.788183 0.573246,1.2097 0.0069,0.01918 -0.003,0.0404 -0.02219,0.04738 -0.01775,0.0063 -0.03661,-0.0015 -0.04532,-0.01735 z"
                 id="path927"
                 clip-path="url(#clipPath4977)" />
              <path
                 style="fill:#000000;fill-opacity:1;stroke-width:0.0159732"
                 d="m 80.561237,86.660706 c 1.014235,0.928459 1.923319,2.17782 2.233535,3.53195 0.0077,0.0319 -0.03886,0.05203 -0.05571,0.02251 -0.101078,-0.141874 -0.184331,-0.28838 -0.288971,-0.423386 -0.576969,-0.815161 -1.276995,-1.537231 -2.036426,-2.181415 -0.120023,-0.103107 -0.255556,-0.212587 -0.376361,-0.306669 -0.43452,-0.357817 0.08394,-0.996953 0.523938,-0.642986 z"
                 id="path931"
                 clip-path="url(#clipPath4973)" />
              <path
                 style="fill:#000000;fill-opacity:1;stroke-width:0.0159732"
                 d="m 74.108199,86.262972 c -1.095219,0.363295 -2.159739,0.854664 -3.111886,1.513319 -0.145037,0.09154 -0.273893,0.20155 -0.418051,0.300632 -0.02533,0.01875 -0.06159,-0.01485 -0.04273,-0.04145 0.752131,-1.165374 2.03625,-2.032049 3.305035,-2.557409 0.537707,-0.181344 0.805466,0.598788 0.267631,0.784908 z"
                 id="path935"
                 clip-path="url(#clipPath4969)" />
              <path
                 style="fill:#000000;fill-opacity:1;stroke-width:0.0159732"
                 d="m 62.957438,89.222586 c 2.386703,-2.659684 6.16151,-4.061957 9.698141,-4.051894 0.229008,7.18e-4 0.414058,0.186982 0.413355,0.415974 -6.71e-4,0.229871 -0.188612,0.415448 -0.418435,0.413323 -2.588923,-0.02489 -5.16855,0.604155 -7.445996,1.843757 -0.76451,0.412812 -1.509278,0.879725 -2.193906,1.43013 -0.01562,0.0139 -0.04049,0.0123 -0.05362,-0.0044 -0.01125,-0.01398 -0.01065,-0.03362 4.63e-4,-0.04688 z"
                 id="path939"
                 clip-path="url(#clipPath4965)" />
              <path
                 style="fill:#000000;fill-opacity:1;stroke-width:0.0159732"
                 d="m 67.866552,115.56974 c -3.608207,-3.64863 -5.465157,-9.02707 -4.648495,-14.11414 0,0 0.05385,-0.37866 0.05385,-0.37866 l 0.07621,-0.37466 c 0.106606,-0.585 0.293333,-1.279786 0.459502,-1.851548 0.07873,-0.239949 0.286304,-0.837571 0.369141,-1.081674 0.09117,-0.216405 0.344383,-0.842188 0.435957,-1.054632 0.250588,-0.53341 0.561155,-1.183807 0.861564,-1.689983 0,0 0.375434,-0.657809 0.375434,-0.657809 0.13114,-0.215542 0.275874,-0.422923 0.41294,-0.634408 0.1382,-0.210815 0.277854,-0.420463 0.418786,-0.628866 0.01797,-0.02656 0.05409,-0.03354 0.08065,-0.01556 0.02591,0.01763 0.03287,0.05195 0.0172,0.07827 -0.23519,0.443912 -0.486417,0.87677 -0.718683,1.319356 -0.195976,0.408339 -0.479644,0.939976 -0.650957,1.348699 -0.108825,0.256098 -0.342514,0.784221 -0.439184,1.030927 -0.0757,0.214089 -0.305583,0.82604 -0.38767,1.049313 -0.123281,0.418706 -0.325103,1.008949 -0.418945,1.42783 -0.954177,3.574245 -0.630304,7.471875 0.945391,10.819525 0.826246,1.7649 1.921993,3.43108 3.317286,4.79639 0.402174,0.3735 -0.133919,0.98657 -0.559973,0.61163 z"
                 id="path943"
                 clip-path="url(#clipPath4961)" />
              <path
                 style="fill:#000000;fill-opacity:1;stroke-width:0.0159732"
                 d="m 67.293832,115.70342 c -1.970249,-0.73719 -3.786643,-1.87209 -5.346237,-3.28085 -3.19442,-2.82451 -4.809488,-7.05026 -4.358516,-11.27427 0.190065,-2.060429 0.763136,-4.066793 1.561062,-5.966137 0.01236,-0.02952 0.04632,-0.04345 0.07586,-0.03108 0.02843,0.0119 0.04227,0.04407 0.03225,0.07281 -0.678047,1.928559 -1.157164,3.929588 -1.280669,5.953347 -0.36018,5.36545 2.299569,9.78807 6.881471,12.4653 0.856324,0.50229 1.754243,0.94815 2.69235,1.27265 0.52143,0.18029 0.2791,0.94986 -0.257568,0.78824 z"
                 id="path947"
                 clip-path="url(#clipPath4957)" />
              <path
                 style="fill:#000000;fill-opacity:1;stroke-width:0.0159732"
                 d="m 80.372337,118.16839 c -1.61034,1.6e-4 -3.196592,-0.31643 -4.64958,-0.97773 -0.53734,0.18001 -1.905558,0.50806 -4.022009,0.13547 -2.116292,-0.37236 -3.2905,-1.1477 -3.734124,-1.50039 -0.274148,0.0217 -0.549271,0.0323 -0.823419,0.0324 -5.085458,3.8e-4 -10.088127,-3.66215 -11.931756,-8.89306 -0.86511,-2.45472 -1.049457,-5.69874 -0.493205,-8.677757 0.724801,-3.881461 2.644782,-7.232562 5.552419,-9.690937 3.399149,-2.873965 6.980169,-3.605395 9.385752,-3.712879 2.189849,-0.09827 3.807648,0.281832 4.316443,0.420895 1.809111,-0.515888 3.100035,-0.251451 3.393878,-0.177431 0.301495,0.03073 1.605197,0.222874 3.129474,1.325314 0.525678,0.04297 2.175648,0.238225 4.200845,1.077873 2.22435,0.922198 5.340614,2.832084 7.554486,6.693785 1.893785,3.303294 2.554501,7.108437 1.910781,11.004127 -0.494052,2.99 -1.774753,5.97624 -3.425857,7.98818 -2.607005,3.17678 -6.551384,4.95201 -10.364128,4.95217 z m -4.627985,-2.11162 c 0.08092,0 0.161841,0.0185 0.237458,0.055 4.479642,2.16363 10.461597,0.62262 13.91448,-3.585 2.744039,-3.34377 5.384604,-10.83349 1.412352,-17.762255 -3.943197,-6.878116 -10.958348,-7.23483 -11.028774,-7.237626 -0.110359,-0.0044 -0.21674,-0.04231 -0.30504,-0.108681 -1.480494,-1.113414 -2.724425,-1.210866 -2.73682,-1.211681 -0.04025,-0.0028 -0.08325,-0.01026 -0.121907,-0.02183 -0.0089,-0.0025 -1.211441,-0.335486 -2.982967,0.205591 -0.105599,0.03233 -0.218546,0.03163 -0.323825,-0.0019 -0.01618,-0.0051 -1.720396,-0.532818 -4.148597,-0.416997 -3.236174,0.154318 -6.159354,1.316737 -8.688362,3.454992 -6.098878,5.156666 -6.173633,13.097847 -4.735852,17.177487 1.809303,5.13358 6.906118,8.62483 11.854893,8.11943 0.163741,-0.0168 0.326205,0.0417 0.441915,0.15894 0.0067,0.006 0.999684,0.95894 3.355782,1.37356 2.356018,0.41461 3.614612,-0.14164 3.627039,-0.14734 0.07282,-0.0345 0.150516,-0.0516 0.228225,-0.0516 z"
                 id="path953"
                 clip-path="url(#clipPath4953)" />
            </g>
          </g>
          <path
             style="fill:#40c800;fill-opacity:1;stroke-width:0.264583"
             d="m 184.20165,45.0508 27.54948,17.676548 -61.7601,5.935927 23.67835,-22.600179 c 2.85697,-2.726531 7.20831,-3.144837 10.53227,-1.012296 z"
             id="path1063" />
        </g>
      </g>
      <path
         style="fill:#0c520c;fill-opacity:1;stroke-width:0.134997"
         d="m 183.83519,28.291945 c 0,0 -0.6253,0.04212 -0.86236,-0.01404 0.16254,-0.08424 0.0173,-0.04914 -0.0524,-0.07169 l 0.0246,0.04266 c -0.10827,0.03928 -0.1921,-0.04792 -0.25339,-0.03551 0.006,0.0071 0.0161,0.01444 0.0255,0.02201 l -0.006,-0.01633 c 0.0184,0.01187 0.0265,0.02457 0.0308,0.03726 0.0189,0.01781 0.0294,0.03577 0.003,0.05048 l -0.005,-0.01296 c -0.0196,0.04334 -0.0876,0.08248 -0.11744,0.09922 l -0.0708,-0.07222 c 0.078,0.191966 -0.58467,0.155381 -0.66621,0.22504 -0.16509,-0.01566 -0.14525,0.191425 -0.28363,0.240294 -0.17158,0.127437 -0.1786,-0.02902 -0.31507,-0.01485 -0.13838,0.04995 0.10246,0.06399 0.0698,0.106647 l -0.21167,0.01418 c 0.0566,-0.07439 -0.0221,-0.08154 -0.0618,-0.09706 -0.10895,0.08586 -0.39447,0.111103 -0.28039,0.282548 -0.19979,0.06494 -0.25812,0.009 -0.32157,0.05899 0.0452,0.0066 0.10652,-0.0079 0.13594,0.02012 -0.11623,-0.0089 -0.009,0.04064 0.0263,0.0328 -0.0188,0.139721 -0.67714,0.167666 -0.53256,0.340057 l -0.0291,-0.02795 c 0.10084,0.133242 0.24542,0.213295 0.25677,0.333847 l -0.0895,-0.01255 -0.003,0.106782 c -0.0755,0.0017 -0.0891,-0.04752 -0.10382,-0.06143 -0.034,0.146742 -0.22423,0.215455 -0.34843,0.314543 l 0.44091,0.18805 c -0.16592,0.0243 -0.48356,0.05346 -0.39622,0.171581 l -0.16497,-0.04549 c -0.39338,-0.0036 -0.0357,0.220044 -0.17211,0.237729 l -0.21101,-0.01377 0.0921,-0.09571 c -0.15173,0.0405 -0.22612,0.04401 -0.37664,0.04955 l 0.002,0.0039 c 0.01,-8.11e-4 0.0189,0.0011 0.0268,0.0071 l -0.01,0.01647 c 0.0494,0.0675 0.0442,0.156866 -0.0229,0.222475 -0.10666,0.08275 -0.087,0.241238 -0.35883,0.280928 l 0.0888,0.152276 -0.18157,0.05049 -0.0992,-0.08991 c 0.11124,-0.110158 0.27188,-0.362197 0.40229,-0.515553 l -0.0426,-0.04401 c -0.0803,0.08842 -0.12798,0.228819 -0.19089,0.277958 -0.0456,0.01039 -0.21491,-0.01053 -0.23355,-0.124197 l 0.0471,0.142826 c -0.25676,0.305498 -0.25568,0.309413 -0.64609,0.518928 l 0.074,0.01769 c -0.0251,0.08829 -0.0506,0.175494 -0.14728,0.120281 -0.18171,0.172796 -0.41593,0.311033 -0.65096,0.321157 l 0.095,0.130812 c -0.0414,0.03389 -0.27323,-0.06372 -0.12406,0.101113 l -0.0221,0.130541 c -0.0568,0.0463 -0.0181,0.138642 -0.14068,0.140802 h -1.3e-4 l -5.1e-4,1.35e-4 c -0.007,-1.35e-4 -0.0155,-4.05e-4 -0.0243,-5.61e-4 0.004,0.003 0.007,0.0054 0.0105,0.0079 -0.16024,0.07721 0.10705,0.09085 -0.0834,0.17293 -0.12379,-0.02781 0.1084,0.181436 0.0223,0.227064 l -0.23071,-0.07843 c -0.20573,0.04077 -0.052,0.21019 -0.20668,0.392165 -0.13581,0.0347 -0.31886,-0.0482 -0.39972,-0.217479 0.0898,0.214374 0.0718,0.124061 0.0574,0.294157 -0.0789,-0.03901 -0.083,-0.06196 -0.1215,-0.135132 -0.15646,0.02916 0.009,0.107863 -0.0551,0.175362 0.10503,0.124601 0.27998,0.313597 0.26837,0.343296 l 0.0616,0.0051 c 0.002,0.130136 -0.0374,0.237053 -0.17266,0.272153 l -0.0591,-0.05535 -0.0463,0.119608 -0.084,-0.06062 -0.0864,0.153896 0.0366,-4.05e-4 c -0.0155,0.0401 -0.0737,0.165506 -0.16402,0.18967 l -0.0422,-0.03888 c -0.27565,0.05117 -0.2091,0.338167 -0.35585,0.543902 l -0.0692,-0.100167 c -0.14486,-0.0079 0.12406,0.133106 0.0136,0.174685 l -0.11434,-0.08761 c 0.0884,0.189804 -0.10583,0.06399 -0.20074,0.06669 l 0.16415,0.09733 -0.10475,0.06561 c -0.12973,0.06048 -0.23435,-0.08964 -0.29888,-0.166991 l 0.0596,0.162536 -0.13972,-0.09207 c 0.10948,0.172526 -0.0647,0.03024 -0.0554,0.183461 -0.0547,-0.03267 -0.0647,-0.07762 -0.10962,-0.0648 l 0.0649,0.292537 -0.0101,-0.152681 0.18009,0.164291 c 0.0698,0.20695 -0.12014,0.105703 -0.11988,0.21316 l -0.02,-0.09004 c -0.0399,0.142692 -0.12474,0.08302 -0.21505,0.108672 0.0502,0.01 0.12528,0.02403 0.11542,0.0868 -0.015,0.03982 -0.0803,-0.03685 -0.12528,-0.02403 0.12029,0.109078 0.12582,0.23854 0.0106,0.259059 -0.0173,-0.01539 -0.0335,-0.03077 -0.0413,-0.04441 0.006,0.03389 0.0314,0.06926 -0.0237,0.0752 l -0.12581,-0.130947 0.0861,0.166182 c -0.0704,0.0079 -0.0139,0.14755 -0.10462,0.06615 l -0.0104,-0.04496 -0.27134,0.271478 -0.11597,-0.08572 c 0.13163,0.153221 -0.18846,0.115963 0.0132,0.260273 -0.15053,-0.02754 -0.10153,0.281064 -0.29416,0.07452 -0.17306,0.183461 -0.0471,0.454804 -0.3406,0.611805 -0.25339,-0.06048 -0.37623,0.22207 -0.51636,0.361252 -0.15795,0.36206 -0.23503,0.614909 -0.41283,0.970761 -0.20289,-0.0067 -0.27012,0.126627 -0.32223,0.274177 -0.0262,0.07358 -0.0493,0.150252 -0.0845,0.214106 -0.0177,0.032 -0.0383,0.06075 -0.0639,0.08424 -0.006,0.0049 -0.015,0.01391 -0.0185,0.01431 -0.003,0 -0.006,-4.04e-4 -0.0104,-0.0012 -0.008,-0.0015 -0.0169,-0.0046 -0.0278,-0.0096 0.031,0.03158 0.061,0.06466 0.0898,0.09936 -0.0913,-0.05265 -0.0934,-0.03064 -0.10206,0.0017 -0.006,0.02983 -0.0221,0.07236 -0.0872,-0.0108 0.0223,0.06628 0.0258,0.0922 0.0263,0.09936 0.005,0.0046 0.0184,0.02768 0.059,0.112588 -0.0387,-0.04604 -0.0306,0.06615 -0.0965,-0.124468 l -0.005,-0.02214 c -0.034,-0.09382 -0.0301,-0.06642 -0.0282,-0.03158 0.002,0.03428 8.1e-4,0.07871 -0.0253,-0.0073 l 0.0618,0.216264 c -0.01,-0.0032 -0.0195,-0.0071 -0.0286,-0.01174 l -0.005,-0.05103 c 0.0136,0.326827 -0.0592,0.345457 -0.0905,0.289029 -0.0389,-0.120553 -0.0467,-0.190751 -0.12824,-0.02551 0.0537,-0.23719 -0.044,0.104622 0.002,-0.169286 0.0212,-0.182651 0.0142,-0.168746 -0.013,-0.113397 -0.0259,0.0567 -0.0714,0.155786 -0.0975,0.179275 -0.004,0.01148 -0.009,0.02457 -0.0165,0.04064 l -0.0339,-0.08127 c 0.0722,-0.121227 0.0406,-0.07317 0.005,-0.02146 -0.0363,0.0509 -0.0772,0.104082 -0.0103,0.0067 -0.006,-0.08329 -0.0181,-0.135942 -0.0395,-0.176981 -0.0107,-0.02038 -0.0235,-0.0378 -0.0383,-0.054 -0.0378,-0.03807 -0.0761,-0.07668 -0.11475,-0.115693 -0.21343,-0.217344 -0.45211,-0.423348 -0.62504,-0.668503 l -0.031,0.06695 c -0.0972,-0.115422 -0.28808,-0.186565 -0.29159,-0.345861 -0.005,-0.159701 -0.30267,-0.04549 -0.34113,-0.06736 -0.17145,0.0019 -0.0918,-0.249204 -0.0616,-0.203711 -0.1211,-0.06723 -0.37921,0.0324 -0.44455,-0.16942 0.10219,-0.214645 -0.52541,-0.159701 -0.36504,-0.357472 l -0.0154,0.01539 c -0.0691,-0.292943 -0.43523,-0.193586 -0.54242,-0.479239 0,0 0.0152,-0.01215 0.0328,-0.02052 -0.29861,0.100438 -0.59115,0.20857 -0.87978,0.329797 -0.11406,0.267698 -0.24218,0.526757 -0.37082,0.786356 -0.0289,0.263243 -0.0639,0.527027 -0.10544,0.788245 0.30199,0.167666 0.60721,0.358956 0.90799,0.559697 0.15254,0.258923 0.29875,0.520277 0.43671,0.78568 0.12878,0.115962 0.25677,0.23314 0.3815,0.354771 0.1269,0.119068 0.2511,0.24151 0.3734,0.366516 l 0.0925,0.09301 0.0899,0.09504 0.0907,0.101652 0.35666,0.4139 0.3541,0.41066 0.34545,0.427399 c 0.0877,0.0085 0.17131,0.01134 0.25083,0.0086 0.23571,0.618554 0.60425,1.02935 0.93877,1.416655 0.24272,-0.369621 0.47356,-0.721422 0.73181,-0.902452 l -0.0357,-0.236515 c 0.13932,-0.211944 0.16349,-0.06845 0.21019,-0.08397 0.34411,-0.497193 0.68335,-0.9956 1.01207,-1.483613 l 0.24718,-0.359901 0.0616,-0.08896 0.0382,-0.05792 0.0629,-0.09774 c 0.0841,-0.130001 0.16766,-0.259734 0.25433,-0.38609 0.34343,-0.507857 0.70711,-0.982236 1.1329,-1.355637 0.15186,-0.01714 0.30347,-0.313057 0.44764,-0.306307 0.0652,-0.40877 0.30375,-0.709543 0.54782,-0.977511 l 0.006,0.02214 0.0825,-0.152412 c 0.0152,0.003 0.0312,0.01472 0.0377,0.02701 0.006,-0.242049 0.31117,-0.385415 0.50583,-0.529862 l 0.006,0.02214 c 0.89287,-1.038934 1.47646,-2.219346 2.55346,-3.083594 0.61694,-0.296048 0.83307,-1.087128 1.4878,-1.468899 0.20695,0.0097 1.12088,-1.127762 1.15261,-1.278014 l -0.26244,-0.01741 c 0.30752,-0.460609 0.63611,-0.491929 0.84495,-0.939443 l 0.0131,0.04927 c 0.0814,-0.01202 -0.21614,-0.370026 0.70683,-0.497193 l 0.0142,0.01444 c 0.0162,-0.02038 -0.0123,-0.04914 0.0625,-0.0463 l -0.17954,5.61e-4 c 0.0198,-0.08977 8.1e-4,-0.205735 0.0657,-0.287138 0.0314,9.72e-4 0.0659,0.02551 0.09,0.04724 l 0.15836,-0.199525 0.14647,0.04063 c 0.006,-0.104487 -0.21019,-0.279578 0.0452,-0.311842 -0.18859,-0.08451 -0.005,-0.154436 -0.091,-0.207355 0.0239,0.0099 0.0653,0.01904 0.10179,0.02956 0.074,-0.101517 0.20438,-0.301583 0.1786,-0.413494 z"
         id="path986" />
    </g>
  </g>
</svg>
